<svg id="svg" version="1.1" width="400" height="400" xmlns="http://www.w3.org/2000/svg" xmlns:xlink="http://www.w3.org/1999/xlink" style="display: block;"><g id="svgg"><path id="path0" d="M88.236 97.252 L 79.972 119.500 79.986 206.250 L 80.000 293.000 110.000 293.000 L 140.000 293.000 140.000 309.000 L 140.000 325.000 156.762 325.000 L 173.523 325.000 189.500 309.000 L 205.477 293.000 229.994 293.000 L 254.511 293.000 287.256 260.244 L 320.000 227.489 320.000 151.244 L 320.000 75.000 208.250 75.002 L 96.500 75.004 88.236 97.252 M298.000 156.241 L 298.000 215.481 278.760 234.741 L 259.519 254.000 230.021 254.000 L 200.522 254.000 184.261 270.239 L 168.000 286.477 168.000 270.239 L 168.000 254.000 143.500 254.000 L 119.000 254.000 119.000 175.500 L 119.000 97.000 208.500 97.000 L 298.000 97.000 298.000 156.241 M178.000 173.000 L 178.000 206.000 189.000 206.000 L 200.000 206.000 200.000 173.000 L 200.000 140.000 189.000 140.000 L 178.000 140.000 178.000 173.000 M238.000 173.000 L 238.000 206.000 249.000 206.000 L 260.000 206.000 260.000 173.000 L 260.000 140.000 249.000 140.000 L 238.000 140.000 238.000 173.000 " stroke="none" fill="#000000" fill-rule="evenodd"></path></g></svg>